<mxfile host="app.diagrams.net" modified="2024-07-11T22:26:50.943Z" agent="Mozilla/5.0 (X11; Ubuntu; Linux x86_64; rv:127.0) Gecko/20100101 Firefox/127.0" etag="IiwstlXhFsU9ZoCvdGba" version="24.6.4" type="device">
  <diagram name="Página-1" id="XGo4QF6mYdpmztNutad-">
    <mxGraphModel dx="1548" dy="515" grid="1" gridSize="10" guides="1" tooltips="1" connect="1" arrows="1" fold="1" page="1" pageScale="1" pageWidth="827" pageHeight="1169" math="0" shadow="0">
      <root>
        <mxCell id="0" />
        <mxCell id="1" parent="0" />
        <mxCell id="E5vyAwLDSGxeVuyTleDd-7" value="" style="edgeStyle=orthogonalEdgeStyle;rounded=0;orthogonalLoop=1;jettySize=auto;html=1;" edge="1" parent="1" source="E5vyAwLDSGxeVuyTleDd-5" target="E5vyAwLDSGxeVuyTleDd-6">
          <mxGeometry relative="1" as="geometry" />
        </mxCell>
        <mxCell id="E5vyAwLDSGxeVuyTleDd-5" value="Asistente Virtual" style="whiteSpace=wrap;html=1;align=center;" vertex="1" parent="1">
          <mxGeometry x="1310" y="110" width="100" height="40" as="geometry" />
        </mxCell>
        <mxCell id="E5vyAwLDSGxeVuyTleDd-9" value="" style="edgeStyle=orthogonalEdgeStyle;rounded=0;orthogonalLoop=1;jettySize=auto;html=1;" edge="1" parent="1" source="E5vyAwLDSGxeVuyTleDd-6" target="E5vyAwLDSGxeVuyTleDd-8">
          <mxGeometry relative="1" as="geometry" />
        </mxCell>
        <mxCell id="E5vyAwLDSGxeVuyTleDd-6" value="Cumple" style="rhombus;whiteSpace=wrap;html=1;" vertex="1" parent="1">
          <mxGeometry x="1320" y="210" width="80" height="80" as="geometry" />
        </mxCell>
        <mxCell id="E5vyAwLDSGxeVuyTleDd-12" value="" style="edgeStyle=orthogonalEdgeStyle;rounded=0;orthogonalLoop=1;jettySize=auto;html=1;exitX=0;exitY=0.5;exitDx=0;exitDy=0;" edge="1" parent="1" source="E5vyAwLDSGxeVuyTleDd-8" target="E5vyAwLDSGxeVuyTleDd-11">
          <mxGeometry relative="1" as="geometry">
            <mxPoint x="1050" y="250.0369230769231" as="sourcePoint" />
          </mxGeometry>
        </mxCell>
        <mxCell id="E5vyAwLDSGxeVuyTleDd-14" value="" style="edgeStyle=orthogonalEdgeStyle;rounded=0;orthogonalLoop=1;jettySize=auto;html=1;" edge="1" parent="1" source="E5vyAwLDSGxeVuyTleDd-8" target="E5vyAwLDSGxeVuyTleDd-13">
          <mxGeometry relative="1" as="geometry" />
        </mxCell>
        <mxCell id="E5vyAwLDSGxeVuyTleDd-8" value="Funcion" style="whiteSpace=wrap;html=1;" vertex="1" parent="1">
          <mxGeometry x="1110" y="220" width="120" height="60" as="geometry" />
        </mxCell>
        <mxCell id="E5vyAwLDSGxeVuyTleDd-15" style="edgeStyle=orthogonalEdgeStyle;rounded=0;orthogonalLoop=1;jettySize=auto;html=1;entryX=0.5;entryY=0;entryDx=0;entryDy=0;" edge="1" parent="1" source="E5vyAwLDSGxeVuyTleDd-11" target="E5vyAwLDSGxeVuyTleDd-16">
          <mxGeometry relative="1" as="geometry">
            <mxPoint x="850" y="479.96" as="targetPoint" />
            <Array as="points">
              <mxPoint x="850" y="359.96" />
            </Array>
          </mxGeometry>
        </mxCell>
        <mxCell id="E5vyAwLDSGxeVuyTleDd-11" value="Añade" style="rhombus;whiteSpace=wrap;html=1;" vertex="1" parent="1">
          <mxGeometry x="890" y="319.96" width="80" height="80" as="geometry" />
        </mxCell>
        <mxCell id="E5vyAwLDSGxeVuyTleDd-32" style="edgeStyle=orthogonalEdgeStyle;rounded=0;orthogonalLoop=1;jettySize=auto;html=1;" edge="1" parent="1" source="E5vyAwLDSGxeVuyTleDd-13" target="E5vyAwLDSGxeVuyTleDd-25">
          <mxGeometry relative="1" as="geometry" />
        </mxCell>
        <mxCell id="E5vyAwLDSGxeVuyTleDd-13" value="Agrega" style="rhombus;whiteSpace=wrap;html=1;" vertex="1" parent="1">
          <mxGeometry x="1130" y="320" width="80" height="80" as="geometry" />
        </mxCell>
        <mxCell id="E5vyAwLDSGxeVuyTleDd-16" value="Alarma" style="whiteSpace=wrap;html=1;" vertex="1" parent="1">
          <mxGeometry x="780" y="489.96" width="120" height="60" as="geometry" />
        </mxCell>
        <mxCell id="E5vyAwLDSGxeVuyTleDd-19" value="" style="endArrow=none;html=1;rounded=0;exitX=0.042;exitY=0.26;exitDx=0;exitDy=0;exitPerimeter=0;" edge="1" parent="1" source="E5vyAwLDSGxeVuyTleDd-50" target="E5vyAwLDSGxeVuyTleDd-16">
          <mxGeometry width="50" height="50" relative="1" as="geometry">
            <mxPoint x="920" y="640" as="sourcePoint" />
            <mxPoint x="1020" y="569.96" as="targetPoint" />
          </mxGeometry>
        </mxCell>
        <mxCell id="E5vyAwLDSGxeVuyTleDd-21" value="Hora" style="ellipse;whiteSpace=wrap;html=1;align=center;" vertex="1" parent="1">
          <mxGeometry x="930" y="564.96" width="100" height="40" as="geometry" />
        </mxCell>
        <mxCell id="E5vyAwLDSGxeVuyTleDd-22" value="" style="endArrow=none;html=1;rounded=0;exitX=0;exitY=0.5;exitDx=0;exitDy=0;" edge="1" parent="1" source="E5vyAwLDSGxeVuyTleDd-21" target="E5vyAwLDSGxeVuyTleDd-16">
          <mxGeometry width="50" height="50" relative="1" as="geometry">
            <mxPoint x="1100" y="599.96" as="sourcePoint" />
            <mxPoint x="980" y="529.96" as="targetPoint" />
          </mxGeometry>
        </mxCell>
        <mxCell id="E5vyAwLDSGxeVuyTleDd-24" value="" style="endArrow=none;html=1;rounded=0;exitX=0;exitY=0.5;exitDx=0;exitDy=0;" edge="1" parent="1" source="E5vyAwLDSGxeVuyTleDd-49" target="E5vyAwLDSGxeVuyTleDd-16">
          <mxGeometry width="50" height="50" relative="1" as="geometry">
            <mxPoint x="940" y="700" as="sourcePoint" />
            <mxPoint x="970" y="609.96" as="targetPoint" />
          </mxGeometry>
        </mxCell>
        <mxCell id="E5vyAwLDSGxeVuyTleDd-25" value="Recordatorio" style="whiteSpace=wrap;html=1;" vertex="1" parent="1">
          <mxGeometry x="1110" y="490" width="120" height="60" as="geometry" />
        </mxCell>
        <mxCell id="E5vyAwLDSGxeVuyTleDd-26" value="Mes" style="ellipse;whiteSpace=wrap;html=1;align=center;" vertex="1" parent="1">
          <mxGeometry x="1270" y="600" width="100" height="40" as="geometry" />
        </mxCell>
        <mxCell id="E5vyAwLDSGxeVuyTleDd-27" value="" style="endArrow=none;html=1;rounded=0;exitX=0;exitY=0.5;exitDx=0;exitDy=0;" edge="1" parent="1" source="E5vyAwLDSGxeVuyTleDd-26" target="E5vyAwLDSGxeVuyTleDd-25">
          <mxGeometry width="50" height="50" relative="1" as="geometry">
            <mxPoint x="1290" y="620" as="sourcePoint" />
            <mxPoint x="1340" y="570" as="targetPoint" />
          </mxGeometry>
        </mxCell>
        <mxCell id="E5vyAwLDSGxeVuyTleDd-28" value="Dia" style="ellipse;whiteSpace=wrap;html=1;align=center;" vertex="1" parent="1">
          <mxGeometry x="1270" y="550" width="100" height="40" as="geometry" />
        </mxCell>
        <mxCell id="E5vyAwLDSGxeVuyTleDd-29" value="" style="endArrow=none;html=1;rounded=0;exitX=0;exitY=0.5;exitDx=0;exitDy=0;" edge="1" parent="1" source="E5vyAwLDSGxeVuyTleDd-28" target="E5vyAwLDSGxeVuyTleDd-25">
          <mxGeometry width="50" height="50" relative="1" as="geometry">
            <mxPoint x="1420" y="600" as="sourcePoint" />
            <mxPoint x="1300" y="530" as="targetPoint" />
          </mxGeometry>
        </mxCell>
        <mxCell id="E5vyAwLDSGxeVuyTleDd-30" value="Año" style="ellipse;whiteSpace=wrap;html=1;align=center;" vertex="1" parent="1">
          <mxGeometry x="1270" y="660" width="100" height="40" as="geometry" />
        </mxCell>
        <mxCell id="E5vyAwLDSGxeVuyTleDd-31" value="" style="endArrow=none;html=1;rounded=0;exitX=0;exitY=0.5;exitDx=0;exitDy=0;" edge="1" parent="1" source="E5vyAwLDSGxeVuyTleDd-30" target="E5vyAwLDSGxeVuyTleDd-25">
          <mxGeometry width="50" height="50" relative="1" as="geometry">
            <mxPoint x="1410" y="680" as="sourcePoint" />
            <mxPoint x="1290" y="610" as="targetPoint" />
          </mxGeometry>
        </mxCell>
        <mxCell id="E5vyAwLDSGxeVuyTleDd-33" value="Descripcion" style="ellipse;whiteSpace=wrap;html=1;align=center;" vertex="1" parent="1">
          <mxGeometry x="1270" y="710" width="100" height="40" as="geometry" />
        </mxCell>
        <mxCell id="E5vyAwLDSGxeVuyTleDd-34" value="" style="endArrow=none;html=1;rounded=0;exitX=0;exitY=0.5;exitDx=0;exitDy=0;" edge="1" parent="1" source="E5vyAwLDSGxeVuyTleDd-33" target="E5vyAwLDSGxeVuyTleDd-25">
          <mxGeometry width="50" height="50" relative="1" as="geometry">
            <mxPoint x="1471.24" y="878.5" as="sourcePoint" />
            <mxPoint x="1218.756360485268" y="585" as="targetPoint" />
          </mxGeometry>
        </mxCell>
        <mxCell id="E5vyAwLDSGxeVuyTleDd-35" value="Hora" style="ellipse;whiteSpace=wrap;html=1;align=center;" vertex="1" parent="1">
          <mxGeometry x="1270" y="761" width="100" height="40" as="geometry" />
        </mxCell>
        <mxCell id="E5vyAwLDSGxeVuyTleDd-36" value="" style="endArrow=none;html=1;rounded=0;exitX=0;exitY=0.5;exitDx=0;exitDy=0;" edge="1" parent="1" source="E5vyAwLDSGxeVuyTleDd-35" target="E5vyAwLDSGxeVuyTleDd-25">
          <mxGeometry width="50" height="50" relative="1" as="geometry">
            <mxPoint x="1241" y="750" as="sourcePoint" />
            <mxPoint x="1155" y="570" as="targetPoint" />
          </mxGeometry>
        </mxCell>
        <mxCell id="E5vyAwLDSGxeVuyTleDd-37" value="Jiegos" style="whiteSpace=wrap;html=1;" vertex="1" parent="1">
          <mxGeometry x="1450" y="360" width="120" height="60" as="geometry" />
        </mxCell>
        <mxCell id="E5vyAwLDSGxeVuyTleDd-39" value="2" style="ellipse;whiteSpace=wrap;html=1;align=center;" vertex="1" parent="1">
          <mxGeometry x="1597" y="520" width="100" height="40" as="geometry" />
        </mxCell>
        <mxCell id="E5vyAwLDSGxeVuyTleDd-40" value="" style="endArrow=none;html=1;rounded=0;exitX=0;exitY=0.5;exitDx=0;exitDy=0;" edge="1" source="E5vyAwLDSGxeVuyTleDd-39" parent="1" target="E5vyAwLDSGxeVuyTleDd-37">
          <mxGeometry width="50" height="50" relative="1" as="geometry">
            <mxPoint x="1637" y="520" as="sourcePoint" />
            <mxPoint x="1537" y="450" as="targetPoint" />
          </mxGeometry>
        </mxCell>
        <mxCell id="E5vyAwLDSGxeVuyTleDd-41" value="1" style="ellipse;whiteSpace=wrap;html=1;align=center;" vertex="1" parent="1">
          <mxGeometry x="1597" y="465" width="100" height="40" as="geometry" />
        </mxCell>
        <mxCell id="E5vyAwLDSGxeVuyTleDd-42" value="" style="endArrow=none;html=1;rounded=0;exitX=0;exitY=0.5;exitDx=0;exitDy=0;" edge="1" source="E5vyAwLDSGxeVuyTleDd-41" parent="1" target="E5vyAwLDSGxeVuyTleDd-37">
          <mxGeometry width="50" height="50" relative="1" as="geometry">
            <mxPoint x="1767" y="500" as="sourcePoint" />
            <mxPoint x="1554" y="450" as="targetPoint" />
          </mxGeometry>
        </mxCell>
        <mxCell id="E5vyAwLDSGxeVuyTleDd-43" value="3" style="ellipse;whiteSpace=wrap;html=1;align=center;" vertex="1" parent="1">
          <mxGeometry x="1597" y="580" width="100" height="40" as="geometry" />
        </mxCell>
        <mxCell id="E5vyAwLDSGxeVuyTleDd-44" value="" style="endArrow=none;html=1;rounded=0;exitX=0;exitY=0.5;exitDx=0;exitDy=0;" edge="1" source="E5vyAwLDSGxeVuyTleDd-43" parent="1" target="E5vyAwLDSGxeVuyTleDd-37">
          <mxGeometry width="50" height="50" relative="1" as="geometry">
            <mxPoint x="1757" y="580" as="sourcePoint" />
            <mxPoint x="1530" y="450" as="targetPoint" />
          </mxGeometry>
        </mxCell>
        <mxCell id="E5vyAwLDSGxeVuyTleDd-45" value="integer" style="text;html=1;align=center;verticalAlign=middle;whiteSpace=wrap;rounded=0;" vertex="1" parent="1">
          <mxGeometry x="1710" y="520" width="60" height="30" as="geometry" />
        </mxCell>
        <mxCell id="E5vyAwLDSGxeVuyTleDd-46" value="integer" style="text;html=1;align=center;verticalAlign=middle;whiteSpace=wrap;rounded=0;" vertex="1" parent="1">
          <mxGeometry x="1710" y="470" width="60" height="30" as="geometry" />
        </mxCell>
        <mxCell id="E5vyAwLDSGxeVuyTleDd-47" value="integer" style="text;html=1;align=center;verticalAlign=middle;whiteSpace=wrap;rounded=0;" vertex="1" parent="1">
          <mxGeometry x="1710" y="585" width="60" height="30" as="geometry" />
        </mxCell>
        <mxCell id="E5vyAwLDSGxeVuyTleDd-48" value="integer" style="text;html=1;align=center;verticalAlign=middle;whiteSpace=wrap;rounded=0;" vertex="1" parent="1">
          <mxGeometry x="1030" y="570" width="60" height="30" as="geometry" />
        </mxCell>
        <mxCell id="E5vyAwLDSGxeVuyTleDd-49" value="Sonido" style="ellipse;whiteSpace=wrap;html=1;align=center;" vertex="1" parent="1">
          <mxGeometry x="930" y="680" width="100" height="40" as="geometry" />
        </mxCell>
        <mxCell id="E5vyAwLDSGxeVuyTleDd-50" value="Dia" style="ellipse;whiteSpace=wrap;html=1;align=center;" vertex="1" parent="1">
          <mxGeometry x="930" y="620" width="100" height="40" as="geometry" />
        </mxCell>
        <mxCell id="E5vyAwLDSGxeVuyTleDd-52" value="varchar" style="text;html=1;align=center;verticalAlign=middle;whiteSpace=wrap;rounded=0;" vertex="1" parent="1">
          <mxGeometry x="1030" y="690" width="60" height="30" as="geometry" />
        </mxCell>
        <mxCell id="E5vyAwLDSGxeVuyTleDd-54" value="text" style="text;html=1;align=center;verticalAlign=middle;whiteSpace=wrap;rounded=0;" vertex="1" parent="1">
          <mxGeometry x="1370" y="720" width="60" height="30" as="geometry" />
        </mxCell>
        <mxCell id="E5vyAwLDSGxeVuyTleDd-56" value="integer" style="text;html=1;align=center;verticalAlign=middle;whiteSpace=wrap;rounded=0;" vertex="1" parent="1">
          <mxGeometry x="1370" y="766" width="60" height="30" as="geometry" />
        </mxCell>
        <mxCell id="E5vyAwLDSGxeVuyTleDd-57" value="integer" style="text;html=1;align=center;verticalAlign=middle;whiteSpace=wrap;rounded=0;" vertex="1" parent="1">
          <mxGeometry x="1030" y="630" width="60" height="30" as="geometry" />
        </mxCell>
        <mxCell id="E5vyAwLDSGxeVuyTleDd-58" value="integer" style="text;html=1;align=center;verticalAlign=middle;whiteSpace=wrap;rounded=0;" vertex="1" parent="1">
          <mxGeometry x="1380" y="555" width="60" height="30" as="geometry" />
        </mxCell>
        <mxCell id="E5vyAwLDSGxeVuyTleDd-59" value="integer" style="text;html=1;align=center;verticalAlign=middle;whiteSpace=wrap;rounded=0;" vertex="1" parent="1">
          <mxGeometry x="1380" y="600" width="60" height="30" as="geometry" />
        </mxCell>
        <mxCell id="E5vyAwLDSGxeVuyTleDd-60" value="integer" style="text;html=1;align=center;verticalAlign=middle;whiteSpace=wrap;rounded=0;" vertex="1" parent="1">
          <mxGeometry x="1370" y="660" width="60" height="30" as="geometry" />
        </mxCell>
      </root>
    </mxGraphModel>
  </diagram>
</mxfile>
